<?xml version="1.0" encoding="UTF-8" standalone="no"?>
<!-- Created with Inkscape (http://www.inkscape.org/) -->

<svg
   xmlns:dc="http://purl.org/dc/elements/1.1/"
   xmlns:cc="http://creativecommons.org/ns#"
   xmlns:rdf="http://www.w3.org/1999/02/22-rdf-syntax-ns#"
   xmlns:svg="http://www.w3.org/2000/svg"
   xmlns="http://www.w3.org/2000/svg"
   xmlns:sodipodi="http://sodipodi.sourceforge.net/DTD/sodipodi-0.dtd"
   xmlns:inkscape="http://www.inkscape.org/namespaces/inkscape"
   width="156.875"
   height="156.90625"
   id="svg3458"
   version="1.1"
   inkscape:version="0.48.3.1 r9886"
   sodipodi:docname="New document 8">
  <defs
     id="defs3460" />
  <sodipodi:namedview
     id="base"
     pagecolor="#ffffff"
     bordercolor="#666666"
     borderopacity="1.0"
     inkscape:pageopacity="0.0"
     inkscape:pageshadow="2"
     inkscape:zoom="0.35"
     inkscape:cx="193.4375"
     inkscape:cy="115.6088"
     inkscape:document-units="px"
     inkscape:current-layer="layer1"
     showgrid="false"
     fit-margin-top="0"
     fit-margin-left="0"
     fit-margin-right="0"
     fit-margin-bottom="0"
     inkscape:window-width="1301"
     inkscape:window-height="744"
     inkscape:window-x="65"
     inkscape:window-y="24"
     inkscape:window-maximized="1" />
  <metadata
     id="metadata3463">
    <rdf:RDF>
      <cc:Work
         rdf:about="">
        <dc:format>image/svg+xml</dc:format>
        <dc:type
           rdf:resource="http://purl.org/dc/dcmitype/StillImage" />
        <dc:title></dc:title>
      </cc:Work>
    </rdf:RDF>
  </metadata>
  <g
     inkscape:label="Layer 1"
     inkscape:groupmode="layer"
     id="layer1"
     transform="translate(-181.5625,-491.06473)">
    <g
       id="g4368"
       transform="translate(-32.53125,450.90848)">
      <path
         inkscape:connector-curvature="0"
         id="rect3963"
         d="m 214.59375,40.643433 0,155.906247 155.875,0 0,-155.906247 -155.875,0 z m 7.0625,0.96875 c 3.38133,0 6.125,2.743667 6.125,6.125 0,3.38134 -2.74367,6.125 -6.125,6.125 -3.38133,0 -6.125,-2.74366 -6.125,-6.125 0,-3.381333 2.74367,-6.125 6.125,-6.125 z m 141.75,0 c 3.38133,0 6.125,2.743667 6.125,6.125 0,3.38134 -2.74367,6.125 -6.125,6.125 -3.38133,0 -6.125,-2.74366 -6.125,-6.125 0,-3.381333 2.74367,-6.125 6.125,-6.125 z m -102.375,2.6875 c 1.2637,0 2.28125,1.048797 2.28125,2.3125 0,1.263702 -1.01755,2.28125 -2.28125,2.28125 -1.2637,0 -2.28125,-1.017548 -2.28125,-2.28125 0,-1.263703 1.01755,-2.3125 2.28125,-2.3125 z m 9,0 c 1.2637,0 2.28125,1.048797 2.28125,2.3125 0,1.263702 -1.01755,2.28125 -2.28125,2.28125 -1.2637,0 -2.28125,-1.017548 -2.28125,-2.28125 0,-1.263703 1.01755,-2.3125 2.28125,-2.3125 z m 9,0 c 1.2637,0 2.28125,1.048797 2.28125,2.3125 0,1.263702 -1.01755,2.28125 -2.28125,2.28125 -1.2637,0 -2.28125,-1.017548 -2.28125,-2.28125 0,-1.263703 1.01755,-2.3125 2.28125,-2.3125 z m 9,0 c 1.2637,0 2.28125,1.048797 2.28125,2.3125 0,1.263702 -1.01755,2.28125 -2.28125,2.28125 -1.2637,0 -2.28125,-1.017548 -2.28125,-2.28125 0,-1.263703 1.01755,-2.3125 2.28125,-2.3125 z m 9,0 c 1.2637,0 2.28125,1.048797 2.28125,2.3125 0,1.263702 -1.01755,2.28125 -2.28125,2.28125 -1.2637,0 -2.28125,-1.017548 -2.28125,-2.28125 0,-1.263703 1.01755,-2.3125 2.28125,-2.3125 z m 9,0 c 1.2637,0 2.28125,1.048797 2.28125,2.3125 0,1.263702 -1.01755,2.28125 -2.28125,2.28125 -1.2637,0 -2.28125,-1.017548 -2.28125,-2.28125 0,-1.263703 1.01755,-2.3125 2.28125,-2.3125 z m 9,0 c 1.2637,0 2.28125,1.048797 2.28125,2.3125 0,1.263702 -1.01755,2.28125 -2.28125,2.28125 -1.2637,0 -2.28125,-1.017548 -2.28125,-2.28125 0,-1.263703 1.01755,-2.3125 2.28125,-2.3125 z m 9,0 c 1.2637,0 2.28125,1.048797 2.28125,2.3125 0,1.263702 -1.01755,2.28125 -2.28125,2.28125 -1.2637,0 -2.28125,-1.017548 -2.28125,-2.28125 0,-1.263703 1.01755,-2.3125 2.28125,-2.3125 z m -102.375,139.062497 c 3.38133,0 6.125,2.74366 6.125,6.125 0,3.38133 -2.74367,6.125 -6.125,6.125 -3.38133,0 -6.125,-2.74367 -6.125,-6.125 0,-3.38134 2.74367,-6.125 6.125,-6.125 z m 141.75,0 c 3.38133,0 6.125,2.74366 6.125,6.125 0,3.38133 -2.74367,6.125 -6.125,6.125 -3.38133,0 -6.125,-2.74367 -6.125,-6.125 0,-3.38134 2.74367,-6.125 6.125,-6.125 z m -102.375,4.90625 c 1.2637,0 2.28125,1.01755 2.28125,2.28125 0,1.2637 -1.01755,2.3125 -2.28125,2.3125 -1.2637,0 -2.28125,-1.0488 -2.28125,-2.3125 0,-1.2637 1.01755,-2.28125 2.28125,-2.28125 z m 9,0 c 1.2637,0 2.28125,1.01755 2.28125,2.28125 0,1.2637 -1.01755,2.3125 -2.28125,2.3125 -1.2637,0 -2.28125,-1.0488 -2.28125,-2.3125 0,-1.2637 1.01755,-2.28125 2.28125,-2.28125 z m 9,0 c 1.2637,0 2.28125,1.01755 2.28125,2.28125 0,1.2637 -1.01755,2.3125 -2.28125,2.3125 -1.2637,0 -2.28125,-1.0488 -2.28125,-2.3125 0,-1.2637 1.01755,-2.28125 2.28125,-2.28125 z m 9,0 c 1.2637,0 2.28125,1.01755 2.28125,2.28125 0,1.2637 -1.01755,2.3125 -2.28125,2.3125 -1.2637,0 -2.28125,-1.0488 -2.28125,-2.3125 0,-1.2637 1.01755,-2.28125 2.28125,-2.28125 z m 9,0 c 1.2637,0 2.28125,1.01755 2.28125,2.28125 0,1.2637 -1.01755,2.3125 -2.28125,2.3125 -1.2637,0 -2.28125,-1.0488 -2.28125,-2.3125 0,-1.2637 1.01755,-2.28125 2.28125,-2.28125 z m 9,0 c 1.2637,0 2.28125,1.01755 2.28125,2.28125 0,1.2637 -1.01755,2.3125 -2.28125,2.3125 -1.2637,0 -2.28125,-1.0488 -2.28125,-2.3125 0,-1.2637 1.01755,-2.28125 2.28125,-2.28125 z m 9,0 c 1.2637,0 2.28125,1.01755 2.28125,2.28125 0,1.2637 -1.01755,2.3125 -2.28125,2.3125 -1.2637,0 -2.28125,-1.0488 -2.28125,-2.3125 0,-1.2637 1.01755,-2.28125 2.28125,-2.28125 z m 9,0 c 1.2637,0 2.28125,1.01755 2.28125,2.28125 0,1.2637 -1.01755,2.3125 -2.28125,2.3125 -1.2637,0 -2.28125,-1.0488 -2.28125,-2.3125 0,-1.2637 1.01755,-2.28125 2.28125,-2.28125 z"
         style="fill:#ff0000;stroke:#aa0000" />
      <path
         transform="matrix(1.0169491,0,0,1.0169492,0.1525559,-5.3663106)"
         d="m 258.75,51.112183 c 0,1.24264 -1.00736,2.25 -2.25,2.25 -1.24264,0 -2.25,-1.00736 -2.25,-2.25 0,-1.242641 1.00736,-2.25 2.25,-2.25 1.24264,0 2.25,1.007359 2.25,2.25 z"
         sodipodi:ry="2.25"
         sodipodi:rx="2.25"
         sodipodi:cy="51.112183"
         sodipodi:cx="256.5"
         id="path3858"
         style="fill:none;stroke:#999999;stroke-width:1.77165353;stroke-linecap:round;stroke-linejoin:round;stroke-miterlimit:4;stroke-opacity:1;stroke-dasharray:none;stroke-dashoffset:0"
         sodipodi:type="arc" />
      <path
         transform="matrix(1.0169491,0,0,1.0169492,9.152556,-5.3663106)"
         d="m 258.75,51.112183 c 0,1.24264 -1.00736,2.25 -2.25,2.25 -1.24264,0 -2.25,-1.00736 -2.25,-2.25 0,-1.242641 1.00736,-2.25 2.25,-2.25 1.24264,0 2.25,1.007359 2.25,2.25 z"
         sodipodi:ry="2.25"
         sodipodi:rx="2.25"
         sodipodi:cy="51.112183"
         sodipodi:cx="256.5"
         id="path3858-7"
         style="fill:none;stroke:#999999;stroke-width:1.77165353;stroke-linecap:round;stroke-linejoin:round;stroke-miterlimit:4;stroke-opacity:1;stroke-dasharray:none;stroke-dashoffset:0"
         sodipodi:type="arc" />
      <path
         transform="matrix(1.0169491,0,0,1.0169492,18.152556,-5.3663106)"
         d="m 258.75,51.112183 c 0,1.24264 -1.00736,2.25 -2.25,2.25 -1.24264,0 -2.25,-1.00736 -2.25,-2.25 0,-1.242641 1.00736,-2.25 2.25,-2.25 1.24264,0 2.25,1.007359 2.25,2.25 z"
         sodipodi:ry="2.25"
         sodipodi:rx="2.25"
         sodipodi:cy="51.112183"
         sodipodi:cx="256.5"
         id="path3858-7-4"
         style="fill:none;stroke:#999999;stroke-width:1.77165353;stroke-linecap:round;stroke-linejoin:round;stroke-miterlimit:4;stroke-opacity:1;stroke-dasharray:none;stroke-dashoffset:0"
         sodipodi:type="arc" />
      <path
         transform="matrix(1.0169491,0,0,1.0169492,27.152556,-5.3663106)"
         d="m 258.75,51.112183 c 0,1.24264 -1.00736,2.25 -2.25,2.25 -1.24264,0 -2.25,-1.00736 -2.25,-2.25 0,-1.242641 1.00736,-2.25 2.25,-2.25 1.24264,0 2.25,1.007359 2.25,2.25 z"
         sodipodi:ry="2.25"
         sodipodi:rx="2.25"
         sodipodi:cy="51.112183"
         sodipodi:cx="256.5"
         id="path3858-7-0"
         style="fill:none;stroke:#999999;stroke-width:1.77165353;stroke-linecap:round;stroke-linejoin:round;stroke-miterlimit:4;stroke-opacity:1;stroke-dasharray:none;stroke-dashoffset:0"
         sodipodi:type="arc" />
      <path
         transform="matrix(1.0169491,0,0,1.0169492,36.152556,-5.3663106)"
         d="m 258.75,51.112183 c 0,1.24264 -1.00736,2.25 -2.25,2.25 -1.24264,0 -2.25,-1.00736 -2.25,-2.25 0,-1.242641 1.00736,-2.25 2.25,-2.25 1.24264,0 2.25,1.007359 2.25,2.25 z"
         sodipodi:ry="2.25"
         sodipodi:rx="2.25"
         sodipodi:cy="51.112183"
         sodipodi:cx="256.5"
         id="path3858-9"
         style="fill:none;stroke:#999999;stroke-width:1.77165353;stroke-linecap:round;stroke-linejoin:round;stroke-miterlimit:4;stroke-opacity:1;stroke-dasharray:none;stroke-dashoffset:0"
         sodipodi:type="arc" />
      <path
         transform="matrix(1.0169491,0,0,1.0169492,45.152556,-5.3663106)"
         d="m 258.75,51.112183 c 0,1.24264 -1.00736,2.25 -2.25,2.25 -1.24264,0 -2.25,-1.00736 -2.25,-2.25 0,-1.242641 1.00736,-2.25 2.25,-2.25 1.24264,0 2.25,1.007359 2.25,2.25 z"
         sodipodi:ry="2.25"
         sodipodi:rx="2.25"
         sodipodi:cy="51.112183"
         sodipodi:cx="256.5"
         id="path3858-7-48"
         style="fill:none;stroke:#999999;stroke-width:1.77165353;stroke-linecap:round;stroke-linejoin:round;stroke-miterlimit:4;stroke-opacity:1;stroke-dasharray:none;stroke-dashoffset:0"
         sodipodi:type="arc" />
      <path
         transform="matrix(1.0169491,0,0,1.0169492,54.152556,-5.3663106)"
         d="m 258.75,51.112183 c 0,1.24264 -1.00736,2.25 -2.25,2.25 -1.24264,0 -2.25,-1.00736 -2.25,-2.25 0,-1.242641 1.00736,-2.25 2.25,-2.25 1.24264,0 2.25,1.007359 2.25,2.25 z"
         sodipodi:ry="2.25"
         sodipodi:rx="2.25"
         sodipodi:cy="51.112183"
         sodipodi:cx="256.5"
         id="path3858-7-4-8"
         style="fill:none;stroke:#999999;stroke-width:1.77165353;stroke-linecap:round;stroke-linejoin:round;stroke-miterlimit:4;stroke-opacity:1;stroke-dasharray:none;stroke-dashoffset:0"
         sodipodi:type="arc" />
      <path
         transform="matrix(1.0169491,0,0,1.0169492,63.152556,-5.3663106)"
         d="m 258.75,51.112183 c 0,1.24264 -1.00736,2.25 -2.25,2.25 -1.24264,0 -2.25,-1.00736 -2.25,-2.25 0,-1.242641 1.00736,-2.25 2.25,-2.25 1.24264,0 2.25,1.007359 2.25,2.25 z"
         sodipodi:ry="2.25"
         sodipodi:rx="2.25"
         sodipodi:cy="51.112183"
         sodipodi:cx="256.5"
         id="path3858-7-0-2"
         style="fill:none;stroke:#999999;stroke-width:1.77165353;stroke-linecap:round;stroke-linejoin:round;stroke-miterlimit:4;stroke-opacity:1;stroke-dasharray:none;stroke-dashoffset:0"
         sodipodi:type="arc" />
      <rect
         y="42.112183"
         x="256.5"
         height="9"
         width="72"
         id="rect3959"
         style="fill:none;stroke:#ffffff;stroke-width:0.53149605;stroke-linecap:round;stroke-linejoin:miter;stroke-miterlimit:4;stroke-opacity:1;stroke-dasharray:none;stroke-dashoffset:0" />
      <rect
         y="42.112183"
         x="256.5"
         height="9"
         width="9"
         id="rect3961"
         style="fill:none;stroke:#ffffff;stroke-width:0.53149605;stroke-linecap:round;stroke-linejoin:miter;stroke-miterlimit:4;stroke-opacity:1;stroke-dasharray:none;stroke-dashoffset:0" />
      <path
         transform="matrix(1.0169491,0,0,1.0169492,0.1525559,138.59555)"
         d="m 258.75,51.112183 c 0,1.24264 -1.00736,2.25 -2.25,2.25 -1.24264,0 -2.25,-1.00736 -2.25,-2.25 0,-1.242641 1.00736,-2.25 2.25,-2.25 1.24264,0 2.25,1.007359 2.25,2.25 z"
         sodipodi:ry="2.25"
         sodipodi:rx="2.25"
         sodipodi:cy="51.112183"
         sodipodi:cx="256.5"
         id="path3858-4"
         style="fill:none;stroke:#999999;stroke-width:1.77165353;stroke-linecap:round;stroke-linejoin:round;stroke-miterlimit:4;stroke-opacity:1;stroke-dasharray:none;stroke-dashoffset:0"
         sodipodi:type="arc" />
      <path
         transform="matrix(1.0169491,0,0,1.0169492,9.152556,138.59555)"
         d="m 258.75,51.112183 c 0,1.24264 -1.00736,2.25 -2.25,2.25 -1.24264,0 -2.25,-1.00736 -2.25,-2.25 0,-1.242641 1.00736,-2.25 2.25,-2.25 1.24264,0 2.25,1.007359 2.25,2.25 z"
         sodipodi:ry="2.25"
         sodipodi:rx="2.25"
         sodipodi:cy="51.112183"
         sodipodi:cx="256.5"
         id="path3858-7-5"
         style="fill:none;stroke:#999999;stroke-width:1.77165353;stroke-linecap:round;stroke-linejoin:round;stroke-miterlimit:4;stroke-opacity:1;stroke-dasharray:none;stroke-dashoffset:0"
         sodipodi:type="arc" />
      <path
         transform="matrix(1.0169491,0,0,1.0169492,18.152556,138.59555)"
         d="m 258.75,51.112183 c 0,1.24264 -1.00736,2.25 -2.25,2.25 -1.24264,0 -2.25,-1.00736 -2.25,-2.25 0,-1.242641 1.00736,-2.25 2.25,-2.25 1.24264,0 2.25,1.007359 2.25,2.25 z"
         sodipodi:ry="2.25"
         sodipodi:rx="2.25"
         sodipodi:cy="51.112183"
         sodipodi:cx="256.5"
         id="path3858-7-4-5"
         style="fill:none;stroke:#999999;stroke-width:1.77165353;stroke-linecap:round;stroke-linejoin:round;stroke-miterlimit:4;stroke-opacity:1;stroke-dasharray:none;stroke-dashoffset:0"
         sodipodi:type="arc" />
      <path
         transform="matrix(1.0169491,0,0,1.0169492,27.152556,138.59555)"
         d="m 258.75,51.112183 c 0,1.24264 -1.00736,2.25 -2.25,2.25 -1.24264,0 -2.25,-1.00736 -2.25,-2.25 0,-1.242641 1.00736,-2.25 2.25,-2.25 1.24264,0 2.25,1.007359 2.25,2.25 z"
         sodipodi:ry="2.25"
         sodipodi:rx="2.25"
         sodipodi:cy="51.112183"
         sodipodi:cx="256.5"
         id="path3858-7-0-1"
         style="fill:none;stroke:#999999;stroke-width:1.77165353;stroke-linecap:round;stroke-linejoin:round;stroke-miterlimit:4;stroke-opacity:1;stroke-dasharray:none;stroke-dashoffset:0"
         sodipodi:type="arc" />
      <path
         transform="matrix(1.0169491,0,0,1.0169492,36.152556,138.59555)"
         d="m 258.75,51.112183 c 0,1.24264 -1.00736,2.25 -2.25,2.25 -1.24264,0 -2.25,-1.00736 -2.25,-2.25 0,-1.242641 1.00736,-2.25 2.25,-2.25 1.24264,0 2.25,1.007359 2.25,2.25 z"
         sodipodi:ry="2.25"
         sodipodi:rx="2.25"
         sodipodi:cy="51.112183"
         sodipodi:cx="256.5"
         id="path3858-9-7"
         style="fill:none;stroke:#999999;stroke-width:1.77165353;stroke-linecap:round;stroke-linejoin:round;stroke-miterlimit:4;stroke-opacity:1;stroke-dasharray:none;stroke-dashoffset:0"
         sodipodi:type="arc" />
      <path
         transform="matrix(1.0169491,0,0,1.0169492,45.152556,138.59555)"
         d="m 258.75,51.112183 c 0,1.24264 -1.00736,2.25 -2.25,2.25 -1.24264,0 -2.25,-1.00736 -2.25,-2.25 0,-1.242641 1.00736,-2.25 2.25,-2.25 1.24264,0 2.25,1.007359 2.25,2.25 z"
         sodipodi:ry="2.25"
         sodipodi:rx="2.25"
         sodipodi:cy="51.112183"
         sodipodi:cx="256.5"
         id="path3858-7-48-1"
         style="fill:none;stroke:#999999;stroke-width:1.77165353;stroke-linecap:round;stroke-linejoin:round;stroke-miterlimit:4;stroke-opacity:1;stroke-dasharray:none;stroke-dashoffset:0"
         sodipodi:type="arc" />
      <path
         transform="matrix(1.0169491,0,0,1.0169492,54.152556,138.59555)"
         d="m 258.75,51.112183 c 0,1.24264 -1.00736,2.25 -2.25,2.25 -1.24264,0 -2.25,-1.00736 -2.25,-2.25 0,-1.242641 1.00736,-2.25 2.25,-2.25 1.24264,0 2.25,1.007359 2.25,2.25 z"
         sodipodi:ry="2.25"
         sodipodi:rx="2.25"
         sodipodi:cy="51.112183"
         sodipodi:cx="256.5"
         id="path3858-7-4-8-1"
         style="fill:none;stroke:#999999;stroke-width:1.77165353;stroke-linecap:round;stroke-linejoin:round;stroke-miterlimit:4;stroke-opacity:1;stroke-dasharray:none;stroke-dashoffset:0"
         sodipodi:type="arc" />
      <path
         transform="matrix(1.0169491,0,0,1.0169492,63.152556,138.59555)"
         d="m 258.75,51.112183 c 0,1.24264 -1.00736,2.25 -2.25,2.25 -1.24264,0 -2.25,-1.00736 -2.25,-2.25 0,-1.242641 1.00736,-2.25 2.25,-2.25 1.24264,0 2.25,1.007359 2.25,2.25 z"
         sodipodi:ry="2.25"
         sodipodi:rx="2.25"
         sodipodi:cy="51.112183"
         sodipodi:cx="256.5"
         id="path3858-7-0-2-5"
         style="fill:none;stroke:#999999;stroke-width:1.77165353;stroke-linecap:round;stroke-linejoin:round;stroke-miterlimit:4;stroke-opacity:1;stroke-dasharray:none;stroke-dashoffset:0"
         sodipodi:type="arc" />
      <rect
         y="186.07404"
         x="256.5"
         height="9"
         width="72"
         id="rect3959-2"
         style="fill:none;stroke:#ffffff;stroke-width:0.53149605;stroke-linecap:round;stroke-linejoin:miter;stroke-miterlimit:4;stroke-opacity:1;stroke-dasharray:none;stroke-dashoffset:0" />
      <rect
         y="186.11218"
         x="256.5"
         height="9"
         width="9"
         id="rect3961-7"
         style="fill:none;stroke:#ffffff;stroke-width:0.53149605;stroke-linecap:round;stroke-linejoin:miter;stroke-miterlimit:4;stroke-opacity:1;stroke-dasharray:none;stroke-dashoffset:0" />
      <rect
         y="58.375961"
         x="223.40552"
         height="120.47244"
         width="138.18898"
         id="rect3963-6"
         style="fill:#999999;stroke:#4d4d4d" />
      <rect
         ry="8.8582678"
         rx="8.8582678"
         y="81.895401"
         x="229.0667"
         height="91.433556"
         width="126.86662"
         id="rect4075"
         style="fill:#676c53;fill-opacity:1;stroke:#333333;stroke-width:0.69094485;stroke-linecap:round;stroke-linejoin:miter;stroke-miterlimit:4;stroke-opacity:1;stroke-dasharray:none;stroke-dashoffset:0" />
      <path
         transform="matrix(0.68027211,0,0,0.68027211,62.441324,34.39556)"
         d="m 243,19.612183 c 0,4.970562 -4.02944,9 -9,9 -4.97056,0 -9,-4.029438 -9,-9 0,-4.970563 4.02944,-9 9,-9 4.97056,0 9,4.029437 9,9 z"
         sodipodi:ry="9"
         sodipodi:rx="9"
         sodipodi:cy="19.612183"
         sodipodi:cx="234"
         id="path4130-1"
         style="fill:#ffffff;stroke:#999999;stroke-width:2.83464575;stroke-linecap:round;stroke-linejoin:miter;stroke-miterlimit:4;stroke-opacity:1;stroke-dasharray:none;stroke-dashoffset:0"
         sodipodi:type="arc" />
      <path
         transform="matrix(0.68027211,0,0,0.68027211,204.19133,34.39556)"
         d="m 243,19.612183 c 0,4.970562 -4.02944,9 -9,9 -4.97056,0 -9,-4.029438 -9,-9 0,-4.970563 4.02944,-9 9,-9 4.97056,0 9,4.029437 9,9 z"
         sodipodi:ry="9"
         sodipodi:rx="9"
         sodipodi:cy="19.612183"
         sodipodi:cx="234"
         id="path4130-1-4"
         style="fill:#ffffff;stroke:#999999;stroke-width:2.83464575;stroke-linecap:round;stroke-linejoin:miter;stroke-miterlimit:4;stroke-opacity:1;stroke-dasharray:none;stroke-dashoffset:0"
         sodipodi:type="arc" />
      <path
         transform="matrix(0.68027211,0,0,0.68027211,62.441324,176.14556)"
         d="m 243,19.612183 c 0,4.970562 -4.02944,9 -9,9 -4.97056,0 -9,-4.029438 -9,-9 0,-4.970563 4.02944,-9 9,-9 4.97056,0 9,4.029437 9,9 z"
         sodipodi:ry="9"
         sodipodi:rx="9"
         sodipodi:cy="19.612183"
         sodipodi:cx="234"
         id="path4130-1-2"
         style="fill:#ffffff;stroke:#999999;stroke-width:2.83464575;stroke-linecap:round;stroke-linejoin:miter;stroke-miterlimit:4;stroke-opacity:1;stroke-dasharray:none;stroke-dashoffset:0"
         sodipodi:type="arc" />
      <path
         transform="matrix(0.68027211,0,0,0.68027211,204.19133,176.14556)"
         d="m 243,19.612183 c 0,4.970562 -4.02944,9 -9,9 -4.97056,0 -9,-4.029438 -9,-9 0,-4.970563 4.02944,-9 9,-9 4.97056,0 9,4.029437 9,9 z"
         sodipodi:ry="9"
         sodipodi:rx="9"
         sodipodi:cy="19.612183"
         sodipodi:cx="234"
         id="path4130-1-3"
         style="fill:#ffffff;stroke:#999999;stroke-width:2.83464575;stroke-linecap:round;stroke-linejoin:miter;stroke-miterlimit:4;stroke-opacity:1;stroke-dasharray:none;stroke-dashoffset:0"
         sodipodi:type="arc" />
      <path
         sodipodi:nodetypes="cccc"
         inkscape:connector-curvature="0"
         id="path4231"
         d="m 339.75,42.112183 -9,0 0,9 9,0"
         style="fill:none;stroke:#ffffff;stroke-width:0.53149605;stroke-linecap:butt;stroke-linejoin:miter;stroke-miterlimit:4;stroke-opacity:1;stroke-dasharray:none" />
      <path
         sodipodi:nodetypes="cccc"
         inkscape:connector-curvature="0"
         id="path4231-1"
         d="m 344.25,42.112183 9,0 0,9 -9,0"
         style="fill:none;stroke:#ffffff;stroke-width:0.53149605;stroke-linecap:butt;stroke-linejoin:miter;stroke-miterlimit:4;stroke-opacity:1;stroke-dasharray:none" />
      <path
         sodipodi:nodetypes="cccccccc"
         inkscape:connector-curvature="0"
         d="m 343.125,44.362183 -2.25,2.25 2.25,2.25 z m -2.25,0 0,4.5 m -1.125,-2.25 4.5,0"
         style="fill:none;stroke:#ffffff;stroke-width:0.53149605;stroke-linecap:butt;stroke-linejoin:bevel;stroke-miterlimit:4;stroke-opacity:1;stroke-dasharray:none"
         id="path4262" />
      <rect
         y="44.362183"
         x="333"
         height="4.5"
         width="4.5"
         id="rect4265"
         style="fill:#999999;fill-opacity:1;stroke:none" />
      <rect
         y="44.362183"
         x="346.5"
         height="4.5"
         width="4.5"
         id="rect4265-6"
         style="fill:#999999;fill-opacity:1;stroke:none" />
      <path
         inkscape:connector-curvature="0"
         id="path4315"
         d="m 245.25,44.362183 4.5,0 0,4.5 -4.5,0"
         style="fill:none;stroke:#ffffff;stroke-width:0.53149605;stroke-linecap:butt;stroke-linejoin:miter;stroke-miterlimit:4;stroke-opacity:1;stroke-dasharray:none" />
      <path
         inkscape:connector-curvature="0"
         id="path4317"
         d="m 243,48.862183 -4.5,0 0,-4.5 4.5,0"
         style="fill:none;stroke:#ffffff;stroke-width:0.53149605;stroke-linecap:butt;stroke-linejoin:miter;stroke-miterlimit:4;stroke-opacity:1;stroke-dasharray:none" />
      <rect
         y="45.487183"
         x="239.625"
         height="2.25"
         width="2.25"
         id="rect4265-9"
         style="fill:#808080;fill-opacity:1;stroke:#808080;stroke-width:0.53149605;stroke-miterlimit:4;stroke-opacity:1;stroke-dasharray:none" />
      <rect
         y="45.487183"
         x="246.375"
         height="2.25"
         width="2.25"
         id="rect4265-9-2"
         style="fill:#808080;fill-opacity:1;stroke:#808080;stroke-width:0.53149605;stroke-miterlimit:4;stroke-opacity:1;stroke-dasharray:none" />
      <g
         transform="translate(0,12.375)"
         id="g4363">
        <rect
           style="fill:#999999;fill-opacity:1;stroke:#999999;stroke-width:0.53149605;stroke-linecap:round;stroke-linejoin:bevel;stroke-miterlimit:4;stroke-opacity:1;stroke-dasharray:none;stroke-dashoffset:0"
           id="rect4359"
           width="2.25"
           height="2.25"
           x="240.75"
           y="33.112183" />
        <rect
           style="fill:#999999;fill-opacity:1;stroke:#999999;stroke-width:0.53149605;stroke-linecap:round;stroke-linejoin:bevel;stroke-miterlimit:4;stroke-opacity:1;stroke-dasharray:none;stroke-dashoffset:0"
           id="rect4361"
           width="2.25"
           height="2.25"
           x="245.25"
           y="33.112183" />
        <rect
           style="fill:#552200;fill-opacity:1;stroke:#552200;stroke-width:0.53149605;stroke-linecap:round;stroke-linejoin:miter;stroke-miterlimit:4;stroke-opacity:1;stroke-dasharray:none;stroke-dashoffset:0"
           id="rect4357"
           width="2.25"
           height="2.25"
           x="243"
           y="33.112183" />
      </g>
    </g>
  </g>
</svg>
